<?xml version="1.0" standalone="no"?>
<!DOCTYPE svg PUBLIC "-//W3C//DTD SVG 20010904//EN"
 "http://www.w3.org/TR/2001/REC-SVG-20010904/DTD/svg10.dtd">
<svg version="1.0" xmlns="http://www.w3.org/2000/svg"
 width="350.000000pt" height="350.000000pt" viewBox="0 0 350.000000 350.000000"
 preserveAspectRatio="xMidYMid meet">
<metadata>
Created by potrace 1.14, written by Peter Selinger 2001-2017
</metadata>
<g transform="translate(0.000000,350.000000) scale(0.100000,-0.100000)"
fill="#000000" stroke="none">
<path d="M0 1750 l0 -1750 1750 0 1750 0 0 1750 0 1750 -1750 0 -1750 0 0
-1750z m2950 1400 l0 -200 200 0 200 0 0 -100 0 -100 -200 0 -200 0 0 -200 0
-200 -100 0 -100 0 0 200 0 200 -200 0 -200 0 0 100 0 100 200 0 200 0 0 200
0 200 100 0 100 0 0 -200z m-900 -300 l0 -100 -650 0 -650 0 0 -1000 0 -1000
1000 0 1000 0 0 650 0 650 100 0 100 0 0 -750 0 -750 -1200 0 -1200 0 0 1200
0 1200 750 0 750 0 0 -100z m-200 -1000 l0 -500 150 0 150 0 0 -100 0 -100
-400 0 -400 0 0 100 0 100 150 0 150 0 0 400 0 400 -150 0 -150 0 0 100 0 100
250 0 250 0 0 -500z"/>
</g>
</svg>
