<svg width="425" height="37" viewBox="0 0 425 37" fill="none" xmlns="http://www.w3.org/2000/svg">
<rect width="425" height="36.8696" rx="2" fill="#36454E"/>
<path fill-rule="evenodd" clip-rule="evenodd" d="M76.7349 19.3852C74.6563 17.5259 72.5518 15.6961 70.4473 13.8672C70.4269 15.6164 70.4303 17.3652 70.4336 19.1141V19.1142V19.1142V19.1143V19.1143V19.1144V19.1145C70.4352 19.9742 70.4369 20.8339 70.4357 21.6937C70.6728 21.6918 70.9102 21.6942 71.1477 21.6966L71.1478 21.6966C71.3575 21.6987 71.5672 21.7008 71.777 21.7C71.7985 20.7005 71.7985 19.7006 71.7984 18.7009C71.7983 18.001 71.7982 17.3012 71.8056 16.6016C72.5313 17.2879 73.2838 17.9446 74.0434 18.5943C74.5941 19.0667 75.1388 19.5461 75.6833 20.0254C76.4888 20.7345 77.2943 21.4435 78.1191 22.1295C78.1199 21.3172 78.1198 20.5049 78.1197 19.6925C78.1194 17.9204 78.1191 16.1481 78.1289 14.3763L77.6788 14.3685C77.3788 14.3633 77.0788 14.3581 76.7787 14.3522C76.7539 15.1689 76.7564 15.9856 76.7589 16.8023C76.7616 17.6632 76.7643 18.5242 76.7349 19.3852ZM69.6349 21.6947C68.2427 19.0954 66.8495 16.4979 65.4555 13.8995C63.9729 16.4773 62.5421 19.0855 61.1159 21.6956C61.3574 21.6978 61.5991 21.6954 61.841 21.6929H61.841H61.8411H61.8411H61.8412H61.8412H61.8413C62.0832 21.6904 62.3252 21.688 62.5672 21.6902C62.6447 21.5477 62.7227 21.4054 62.8008 21.2631L62.8011 21.2626C63.0419 20.8236 63.2828 20.3844 63.5085 19.9365C63.8927 19.9373 64.2768 19.9355 64.661 19.9336C65.516 19.9296 66.3709 19.9255 67.2253 19.9508C67.3723 20.2138 67.5117 20.481 67.6511 20.7483L67.6512 20.7485L67.6513 20.7486L67.6513 20.7487L67.6513 20.7487L67.6513 20.7488L67.6514 20.7488L67.6514 20.7489L67.6514 20.7489C67.8173 21.0671 67.9833 21.3854 68.1622 21.6965C68.4301 21.6872 68.6983 21.6905 68.9666 21.6937H68.9667C69.1894 21.6964 69.4122 21.6992 69.6349 21.6947ZM65.6499 18.8364H65.6497C65.1425 18.8343 64.6353 18.8321 64.1285 18.8252C64.5455 18.0369 64.9714 17.254 65.4063 16.4746C65.6938 16.9629 65.9523 17.4671 66.2107 17.9713L66.2108 17.9714L66.2108 17.9715L66.2109 17.9716L66.211 17.9718L66.211 17.9719L66.2111 17.972C66.3603 18.263 66.5095 18.5541 66.6643 18.8422C66.3265 18.8393 65.9887 18.8379 65.651 18.8364L65.6508 18.8364L65.6506 18.8364L65.6504 18.8364L65.6502 18.8364L65.65 18.8364L65.6499 18.8364ZM27.4631 18.9961L27.4631 18.9961C28.407 17.2913 29.3507 15.5868 30.3247 13.8995C31.7098 16.5006 33.103 19.0981 34.5042 21.6902C34.0058 21.7018 33.5083 21.701 33.0099 21.6911C32.9324 21.5423 32.8544 21.3936 32.7764 21.245C32.5501 20.8138 32.3238 20.3826 32.1089 19.9454C31.2545 19.9343 30.4005 19.9372 29.5464 19.9401H29.5464H29.5464H29.5464H29.5464H29.5463C29.1581 19.9414 28.7697 19.9427 28.3813 19.9427C28.2661 20.1511 28.1549 20.3619 28.0437 20.5727C27.8421 20.9547 27.6404 21.337 27.415 21.7054C27.1779 21.6988 26.9411 21.6979 26.7045 21.6969C26.4586 21.6958 26.2129 21.6948 25.9672 21.6875C26.4689 20.792 26.966 19.894 27.4631 18.9961ZM28.9853 18.835C29.4226 18.8332 29.8603 18.8354 30.298 18.8376L30.2981 18.8376C30.7102 18.8396 31.1223 18.8417 31.5345 18.8404C31.3703 18.5399 31.2138 18.2353 31.0573 17.9308L31.0573 17.9307L31.0573 17.9307C30.806 17.4418 30.5548 16.9528 30.2719 16.4809C29.8679 17.2137 29.4685 17.9473 29.0687 18.6817L28.9853 18.835ZM48.9701 14.3282C48.2015 14.1734 47.3694 14.219 46.6589 14.5689C46.1713 14.8212 45.7158 15.2337 45.5986 15.7911C45.451 16.3378 45.6308 16.9534 46.0639 17.3221C46.5249 17.7559 47.1102 17.9579 47.6968 18.1603C48.1542 18.3181 48.6124 18.4762 49.0131 18.7447C49.4506 19.0624 49.5455 19.729 49.2251 20.163C48.7706 20.8009 47.8159 20.8895 47.1573 20.5361C46.7413 20.3142 46.5739 19.8283 46.5194 19.3872C46.0639 19.4579 45.6094 19.5393 45.1593 19.6377C45.2837 20.579 45.9843 21.4353 46.9157 21.6706C48.0279 21.9883 49.3531 21.804 50.1897 20.9557C50.969 20.2077 51.0013 18.7823 50.1602 18.0692C49.666 17.6441 49.0616 17.4342 48.4564 17.224C48.0513 17.0833 47.6458 16.9424 47.2727 16.7369C46.8576 16.5365 46.828 15.8886 47.1958 15.6256C47.8892 15.0431 49.0265 15.2811 49.5043 16.0282C49.8586 15.8341 50.2165 15.6488 50.5771 15.4663C50.1709 14.942 49.6358 14.4686 48.9701 14.3282ZM34.9392 14.4088C35.3658 14.3528 35.7961 14.3597 36.2255 14.3667C36.3104 14.3681 36.3952 14.3694 36.48 14.3703L36.9291 15.0391L36.9301 15.0406L36.9302 15.0407L36.9302 15.0407C37.3293 15.635 37.7282 16.2292 38.1282 16.8229C38.5108 16.2894 38.8864 15.7509 39.262 15.2124C39.4546 14.9362 39.6472 14.6601 39.8408 14.3846C40.3678 14.3676 40.8948 14.3587 41.4218 14.3748C40.9204 15.0722 40.417 15.7686 39.9137 16.465C39.5781 16.9293 39.2425 17.3936 38.9075 17.8581C39.2855 18.4312 39.6787 18.9943 40.072 19.5574C40.566 20.2647 41.06 20.9721 41.5238 21.6994C41.0218 21.7021 40.5199 21.6976 40.0179 21.6931C39.6985 21.2336 39.3802 20.7733 39.0618 20.3129L39.0617 20.3126C38.7434 19.8524 38.4252 19.3921 38.1058 18.9328C37.9109 19.2051 37.7155 19.477 37.5201 19.7489C37.0536 20.3981 36.5872 21.0472 36.1275 21.7012C35.7826 21.7078 35.4373 21.7067 35.0921 21.7055C34.9286 21.705 34.7652 21.7045 34.6019 21.7047C35.3052 20.6739 36.038 19.664 36.771 18.654L36.7711 18.6538L36.7712 18.6537L36.7713 18.6536C36.9595 18.3943 37.1477 18.1349 37.3354 17.8751C36.7309 16.9866 36.1175 16.1043 35.5041 15.2219L35.5041 15.2218L35.504 15.2218L35.504 15.2218C35.3157 14.9509 35.1273 14.6799 34.9392 14.4088ZM44.0174 14.3695C43.5647 14.3596 43.1128 14.3587 42.66 14.3721C42.6549 15.4461 42.6536 16.5201 42.6523 17.5941C42.6507 18.961 42.649 20.328 42.6395 21.6949L43.0992 21.6951H43.0993H43.0994C43.4057 21.6953 43.7118 21.6955 44.0183 21.6949L44.0186 19.6019C44.019 17.8578 44.0193 16.1136 44.0174 14.3695ZM55.8706 14.3621C56.1611 14.3746 56.4574 14.3708 56.755 14.3671C57.6473 14.3557 58.5524 14.3443 59.3548 14.771C60.3981 15.3293 60.6388 16.9855 59.6769 17.7353C60.2827 17.9742 60.8688 18.4243 61.028 19.0873C61.283 19.9007 60.833 20.8008 60.1216 21.2223C59.2021 21.7274 58.1665 21.7073 57.1398 21.6874C56.7189 21.6792 56.2995 21.6711 55.8903 21.6992C55.8598 19.9981 55.8639 18.297 55.8681 16.5957C55.8699 15.8512 55.8717 15.1067 55.8706 14.3621ZM57.2181 15.4161C57.2208 16.114 57.219 16.811 57.2145 17.5081C57.2811 17.5054 57.3486 17.5035 57.4167 17.5017C57.8645 17.4896 58.3352 17.4768 58.7088 17.2065C59.1481 16.8155 59.132 16.0058 58.647 15.6577C58.2663 15.4167 57.8054 15.4166 57.3668 15.4165H57.3668C57.3169 15.4165 57.2673 15.4165 57.2181 15.4161ZM57.2262 18.4664C57.2208 19.1777 57.2235 19.8899 57.2369 20.6013C57.4122 20.592 57.591 20.5936 57.7706 20.5951C58.2847 20.5995 58.8051 20.6039 59.268 20.3552C59.8219 20.0832 59.9239 19.1938 59.4094 18.8305C58.909 18.442 58.2704 18.4533 57.6583 18.4642C57.512 18.4667 57.3672 18.4693 57.2262 18.4664ZM80.8531 14.367C80.4661 14.3661 80.0796 14.3653 79.6932 14.3683C79.6914 15.5914 79.689 16.8146 79.6865 18.0376C79.684 19.2597 79.6816 20.4818 79.6798 21.7036C79.9061 21.705 80.1326 21.7028 80.3593 21.7005C80.5861 21.6983 80.8129 21.696 81.0398 21.6974C81.0474 21.2566 81.0468 20.8161 81.0462 20.3755C81.0454 19.8296 81.0447 19.2837 81.0595 18.7375C81.1338 18.6373 81.209 18.5371 81.285 18.4368C82.3238 19.5159 83.3653 20.5923 84.414 21.6625C84.8317 21.7109 85.2511 21.7035 85.6707 21.696C85.8632 21.6926 86.0558 21.6891 86.2483 21.6911C85.893 21.3323 85.5366 20.9746 85.1801 20.617C84.214 19.6478 83.248 18.6787 82.3068 17.6852C83.6168 16.565 84.9392 15.4599 86.2724 14.3665C85.655 14.3683 85.0376 14.3656 84.4203 14.3621C83.9636 14.7584 83.5043 15.152 83.0451 15.5455C82.3805 16.115 81.7158 16.6846 81.0586 17.2629C81.0439 16.5732 81.0452 15.8836 81.0465 15.1942C81.047 14.9186 81.0475 14.643 81.047 14.3674C80.9823 14.3673 80.9177 14.3672 80.8531 14.367Z" fill="#AE285D"/>
<path fill-rule="evenodd" clip-rule="evenodd" d="M16.842 12.4021C16.5903 11.9713 16.3386 11.5406 16.0876 11.1094C14.4832 13.8615 12.8728 16.6101 11.2624 19.3587C10.2504 21.086 9.23839 22.8133 8.22787 24.5414C8.17005 24.6437 8.12219 24.7513 8.07441 24.8586C8.07146 24.8652 8.06852 24.8718 8.06557 24.8784C9.72865 24.8808 11.3917 24.8814 13.0548 24.8713C13.2468 24.5424 13.4376 24.2127 13.6285 23.8829C13.9474 23.3318 14.2664 22.7807 14.591 22.2327C15.6303 20.4789 16.6324 18.7034 17.6343 16.928C17.9358 16.3938 18.2373 15.8596 18.5398 15.3261C17.9789 14.3484 17.4104 13.3753 16.842 12.4021ZM17.1944 19.6744C16.8257 19.6751 16.4569 19.6758 16.0882 19.6759C16.6599 20.7022 17.2533 21.7158 17.8468 22.7294C18.2648 23.4433 18.6828 24.1573 19.0933 24.8758C19.5351 24.8761 19.9768 24.8768 20.4185 24.8775C21.6455 24.8794 22.8724 24.8813 24.0996 24.8752C23.5485 23.9029 22.9845 22.9381 22.4205 21.9731C21.9767 21.2138 21.5328 20.4543 21.0951 19.6912C19.7949 19.6696 18.4946 19.672 17.1944 19.6744Z" fill="#AE285D"/>
<path d="M95 4.625L95 32.2382" stroke="white" stroke-width="0.4" stroke-miterlimit="10"/>
<path d="M104.52 16.5675C103.64 16.5675 102.94 16.3575 102.42 15.9375C101.907 15.5175 101.65 14.8775 101.65 14.0175V8.9975H102.67V13.9275C102.67 14.5342 102.827 14.9808 103.14 15.2675C103.46 15.5475 103.927 15.6875 104.54 15.6875C105.76 15.6875 106.37 15.1008 106.37 13.9275V8.9975H107.39V14.0175C107.39 14.8775 107.127 15.5175 106.6 15.9375C106.08 16.3575 105.387 16.5675 104.52 16.5675ZM109.601 11.0675V11.8875H109.631C110.051 11.2475 110.621 10.9275 111.341 10.9275C111.794 10.9275 112.194 11.0408 112.541 11.2675C112.894 11.4942 113.168 11.8208 113.361 12.2475C113.554 12.6675 113.651 13.1675 113.651 13.7475C113.651 14.3208 113.554 14.8208 113.361 15.2475C113.174 15.6742 112.904 16.0042 112.551 16.2375C112.204 16.4708 111.791 16.5875 111.311 16.5875C110.944 16.5875 110.618 16.5142 110.331 16.3675C110.044 16.2142 109.808 15.9975 109.621 15.7175H109.591C109.604 15.9708 109.611 16.2708 109.611 16.6175V18.2575H108.681V11.0675H109.601ZM111.211 15.8075C111.691 15.8075 112.058 15.6208 112.311 15.2475C112.571 14.8742 112.701 14.3808 112.701 13.7675C112.701 13.1542 112.574 12.6575 112.321 12.2775C112.068 11.8975 111.701 11.7075 111.221 11.7075C110.674 11.7075 110.261 11.9008 109.981 12.2875C109.701 12.6742 109.561 13.1675 109.561 13.7675C109.561 14.3808 109.694 14.8742 109.961 15.2475C110.228 15.6208 110.644 15.8075 111.211 15.8075ZM119.024 16.4775C118.644 16.4775 118.344 16.3908 118.124 16.2175C117.911 16.0442 117.804 15.7675 117.804 15.3875V11.7875H116.964V11.0675H117.804V9.3775H118.724V11.0675H119.834V11.7875H118.724V15.1775C118.724 15.3642 118.771 15.4942 118.864 15.5675C118.958 15.6408 119.094 15.6775 119.274 15.6775C119.434 15.6775 119.591 15.6542 119.744 15.6075H119.774V16.3875C119.528 16.4475 119.278 16.4775 119.024 16.4775ZM123.091 16.5875C122.565 16.5875 122.101 16.4642 121.701 16.2175C121.308 15.9642 121.001 15.6208 120.781 15.1875C120.568 14.7542 120.461 14.2742 120.461 13.7475C120.461 13.2275 120.568 12.7542 120.781 12.3275C121.001 11.9008 121.308 11.5642 121.701 11.3175C122.101 11.0642 122.565 10.9375 123.091 10.9375C123.618 10.9375 124.078 11.0642 124.471 11.3175C124.865 11.5642 125.168 11.9008 125.381 12.3275C125.595 12.7542 125.701 13.2275 125.701 13.7475C125.701 14.2742 125.595 14.7542 125.381 15.1875C125.168 15.6208 124.865 15.9642 124.471 16.2175C124.078 16.4642 123.618 16.5875 123.091 16.5875ZM123.081 15.8175C123.615 15.8175 124.025 15.6242 124.311 15.2375C124.605 14.8508 124.751 14.3542 124.751 13.7475C124.751 13.1475 124.605 12.6508 124.311 12.2575C124.018 11.8642 123.608 11.6675 123.081 11.6675C122.555 11.6675 122.145 11.8642 121.851 12.2575C121.558 12.6508 121.411 13.1475 121.411 13.7475C121.411 14.3542 121.555 14.8508 121.841 15.2375C122.135 15.6242 122.548 15.8175 123.081 15.8175ZM134.205 16.4375L132.515 13.3675H130.505V16.4375H129.475V8.9975H132.835C133.302 8.9975 133.708 9.09417 134.055 9.2875C134.408 9.47417 134.678 9.73417 134.865 10.0675C135.052 10.3942 135.145 10.7608 135.145 11.1675C135.145 11.6808 135.005 12.1242 134.725 12.4975C134.445 12.8708 134.052 13.1275 133.545 13.2675L135.365 16.4375H134.205ZM130.505 12.5375H132.625C133.625 12.5375 134.125 12.0942 134.125 11.2075C134.125 10.7675 134.002 10.4375 133.755 10.2175C133.515 9.9975 133.155 9.8875 132.675 9.8875H130.505V12.5375ZM138.212 16.5775C137.485 16.5775 136.912 16.4175 136.492 16.0975C136.078 15.7775 135.852 15.3408 135.812 14.7875H136.752C136.852 15.4808 137.345 15.8275 138.232 15.8275C138.638 15.8275 138.942 15.7508 139.142 15.5975C139.342 15.4375 139.442 15.2308 139.442 14.9775C139.442 14.7908 139.392 14.6408 139.292 14.5275C139.198 14.4142 139.055 14.3242 138.862 14.2575C138.675 14.1908 138.405 14.1208 138.052 14.0475C137.598 13.9542 137.238 13.8608 136.972 13.7675C136.705 13.6675 136.482 13.5108 136.302 13.2975C136.128 13.0842 136.042 12.7942 136.042 12.4275C136.042 11.9608 136.215 11.5942 136.562 11.3275C136.908 11.0608 137.392 10.9275 138.012 10.9275C138.665 10.9275 139.168 11.0675 139.522 11.3475C139.882 11.6208 140.092 12.0008 140.152 12.4875H139.222C139.135 11.9142 138.725 11.6275 137.992 11.6275C137.645 11.6275 137.385 11.6975 137.212 11.8375C137.038 11.9775 136.952 12.1575 136.952 12.3775C136.952 12.5575 137.005 12.6975 137.112 12.7975C137.218 12.8975 137.362 12.9775 137.542 13.0375C137.728 13.0908 138.008 13.1542 138.382 13.2275C138.822 13.3142 139.175 13.4108 139.442 13.5175C139.715 13.6175 139.938 13.7808 140.112 14.0075C140.285 14.2275 140.372 14.5342 140.372 14.9275C140.372 15.4542 140.175 15.8608 139.782 16.1475C139.388 16.4342 138.865 16.5775 138.212 16.5775ZM141.816 16.5075C141.643 16.5075 141.496 16.4508 141.376 16.3375C141.256 16.2175 141.196 16.0742 141.196 15.9075C141.196 15.7408 141.256 15.6008 141.376 15.4875C141.496 15.3675 141.643 15.3075 141.816 15.3075C141.99 15.3075 142.133 15.3675 142.246 15.4875C142.366 15.6008 142.426 15.7408 142.426 15.9075C142.426 16.0742 142.366 16.2175 142.246 16.3375C142.133 16.4508 141.99 16.5075 141.816 16.5075ZM145.925 16.5975C145.418 16.5975 144.965 16.5042 144.565 16.3175C144.171 16.1242 143.858 15.8642 143.625 15.5375C143.391 15.2108 143.258 14.8442 143.225 14.4375H144.205C144.291 14.8442 144.475 15.1642 144.755 15.3975C145.035 15.6242 145.421 15.7375 145.915 15.7375C146.428 15.7375 146.838 15.5775 147.145 15.2575C147.451 14.9375 147.605 14.5108 147.605 13.9775C147.605 13.6242 147.531 13.3175 147.385 13.0575C147.245 12.7975 147.051 12.6008 146.805 12.4675C146.565 12.3275 146.295 12.2575 145.995 12.2575C145.608 12.2575 145.275 12.3242 144.995 12.4575C144.721 12.5842 144.505 12.7508 144.345 12.9575H143.405L144.215 8.9975H148.175V9.8675H144.915L144.425 12.0875H144.445C144.878 11.6408 145.455 11.4175 146.175 11.4175C146.601 11.4175 147.001 11.5208 147.375 11.7275C147.748 11.9342 148.048 12.2342 148.275 12.6275C148.508 13.0208 148.625 13.4808 148.625 14.0075C148.625 14.5275 148.508 14.9842 148.275 15.3775C148.041 15.7642 147.718 16.0642 147.305 16.2775C146.898 16.4908 146.438 16.5975 145.925 16.5975ZM152.537 16.6075C151.93 16.6075 151.403 16.4475 150.957 16.1275C150.517 15.8075 150.18 15.3542 149.947 14.7675C149.713 14.1808 149.597 13.4942 149.597 12.7075C149.597 11.9142 149.717 11.2275 149.957 10.6475C150.203 10.0608 150.547 9.61083 150.987 9.2975C151.433 8.9775 151.953 8.8175 152.547 8.8175C153.14 8.8175 153.657 8.97417 154.097 9.2875C154.537 9.59417 154.877 10.0408 155.117 10.6275C155.357 11.2142 155.477 11.9075 155.477 12.7075C155.477 13.4942 155.36 14.1808 155.127 14.7675C154.893 15.3542 154.557 15.8075 154.117 16.1275C153.677 16.4475 153.15 16.6075 152.537 16.6075ZM152.547 15.7575C153.18 15.7575 153.653 15.4942 153.967 14.9675C154.28 14.4342 154.437 13.6808 154.437 12.7075C154.437 11.7542 154.277 11.0075 153.957 10.4675C153.637 9.9275 153.167 9.6575 152.547 9.6575C151.92 9.6575 151.443 9.9275 151.117 10.4675C150.797 11.0008 150.637 11.7475 150.637 12.7075C150.637 13.6608 150.797 14.4075 151.117 14.9475C151.443 15.4875 151.92 15.7575 152.547 15.7575ZM159.5 16.6075C158.893 16.6075 158.366 16.4475 157.92 16.1275C157.48 15.8075 157.143 15.3542 156.91 14.7675C156.676 14.1808 156.56 13.4942 156.56 12.7075C156.56 11.9142 156.68 11.2275 156.92 10.6475C157.166 10.0608 157.51 9.61083 157.95 9.2975C158.396 8.9775 158.916 8.8175 159.51 8.8175C160.103 8.8175 160.62 8.97417 161.06 9.2875C161.5 9.59417 161.84 10.0408 162.08 10.6275C162.32 11.2142 162.44 11.9075 162.44 12.7075C162.44 13.4942 162.323 14.1808 162.09 14.7675C161.856 15.3542 161.52 15.8075 161.08 16.1275C160.64 16.4475 160.113 16.6075 159.5 16.6075ZM159.51 15.7575C160.143 15.7575 160.616 15.4942 160.93 14.9675C161.243 14.4342 161.4 13.6808 161.4 12.7075C161.4 11.7542 161.24 11.0075 160.92 10.4675C160.6 9.9275 160.13 9.6575 159.51 9.6575C158.883 9.6575 158.406 9.9275 158.08 10.4675C157.76 11.0008 157.6 11.7475 157.6 12.7075C157.6 13.6608 157.76 14.4075 158.08 14.9475C158.406 15.4875 158.883 15.7575 159.51 15.7575ZM166.462 16.6075C165.856 16.6075 165.329 16.4475 164.882 16.1275C164.442 15.8075 164.106 15.3542 163.872 14.7675C163.639 14.1808 163.522 13.4942 163.522 12.7075C163.522 11.9142 163.642 11.2275 163.882 10.6475C164.129 10.0608 164.472 9.61083 164.912 9.2975C165.359 8.9775 165.879 8.8175 166.472 8.8175C167.066 8.8175 167.582 8.97417 168.022 9.2875C168.462 9.59417 168.802 10.0408 169.042 10.6275C169.282 11.2142 169.402 11.9075 169.402 12.7075C169.402 13.4942 169.286 14.1808 169.052 14.7675C168.819 15.3542 168.482 15.8075 168.042 16.1275C167.602 16.4475 167.076 16.6075 166.462 16.6075ZM166.472 15.7575C167.106 15.7575 167.579 15.4942 167.892 14.9675C168.206 14.4342 168.362 13.6808 168.362 12.7075C168.362 11.7542 168.202 11.0075 167.882 10.4675C167.562 9.9275 167.092 9.6575 166.472 9.6575C165.846 9.6575 165.369 9.9275 165.042 10.4675C164.722 11.0008 164.562 11.7475 164.562 12.7075C164.562 13.6608 164.722 14.4075 165.042 14.9475C165.369 15.4875 165.846 15.7575 166.472 15.7575ZM173.392 8.9975H174.412V16.4375H173.392V8.9975ZM176.759 11.0675V11.8275H176.789C177.216 11.2342 177.783 10.9375 178.489 10.9375C179.056 10.9375 179.499 11.0908 179.819 11.3975C180.139 11.7042 180.299 12.1342 180.299 12.6875V16.4375H179.379V12.7975C179.379 12.4575 179.273 12.1942 179.059 12.0075C178.853 11.8142 178.566 11.7175 178.199 11.7175C177.779 11.7175 177.436 11.8542 177.169 12.1275C176.903 12.3942 176.769 12.7408 176.769 13.1675V16.4375H175.839V11.0675H176.759ZM183.612 16.5775C182.885 16.5775 182.312 16.4175 181.892 16.0975C181.479 15.7775 181.252 15.3408 181.212 14.7875H182.152C182.252 15.4808 182.745 15.8275 183.632 15.8275C184.039 15.8275 184.342 15.7508 184.542 15.5975C184.742 15.4375 184.842 15.2308 184.842 14.9775C184.842 14.7908 184.792 14.6408 184.692 14.5275C184.599 14.4142 184.455 14.3242 184.262 14.2575C184.075 14.1908 183.805 14.1208 183.452 14.0475C182.999 13.9542 182.639 13.8608 182.372 13.7675C182.105 13.6675 181.882 13.5108 181.702 13.2975C181.529 13.0842 181.442 12.7942 181.442 12.4275C181.442 11.9608 181.615 11.5942 181.962 11.3275C182.309 11.0608 182.792 10.9275 183.412 10.9275C184.065 10.9275 184.569 11.0675 184.922 11.3475C185.282 11.6208 185.492 12.0008 185.552 12.4875H184.622C184.535 11.9142 184.125 11.6275 183.392 11.6275C183.045 11.6275 182.785 11.6975 182.612 11.8375C182.439 11.9775 182.352 12.1575 182.352 12.3775C182.352 12.5575 182.405 12.6975 182.512 12.7975C182.619 12.8975 182.762 12.9775 182.942 13.0375C183.129 13.0908 183.409 13.1542 183.782 13.2275C184.222 13.3142 184.575 13.4108 184.842 13.5175C185.115 13.6175 185.339 13.7808 185.512 14.0075C185.685 14.2275 185.772 14.5342 185.772 14.9275C185.772 15.4542 185.575 15.8608 185.182 16.1475C184.789 16.4342 184.265 16.5775 183.612 16.5775ZM188.409 16.4775C188.029 16.4775 187.729 16.3908 187.509 16.2175C187.296 16.0442 187.189 15.7675 187.189 15.3875V11.7875H186.349V11.0675H187.189V9.3775H188.109V11.0675H189.219V11.7875H188.109V15.1775C188.109 15.3642 188.156 15.4942 188.249 15.5675C188.342 15.6408 188.479 15.6775 188.659 15.6775C188.819 15.6775 188.976 15.6542 189.129 15.6075H189.159V16.3875C188.912 16.4475 188.662 16.4775 188.409 16.4775ZM195.045 15.7875V16.4375C194.872 16.4908 194.705 16.5175 194.545 16.5175C194.292 16.5175 194.082 16.4475 193.915 16.3075C193.748 16.1608 193.645 15.9408 193.605 15.6475H193.585C193.405 15.9142 193.165 16.1308 192.865 16.2975C192.565 16.4642 192.205 16.5475 191.785 16.5475C191.252 16.5475 190.815 16.4175 190.475 16.1575C190.135 15.8908 189.965 15.5108 189.965 15.0175C189.965 14.6175 190.055 14.3042 190.235 14.0775C190.422 13.8508 190.675 13.6875 190.995 13.5875C191.322 13.4808 191.748 13.3942 192.275 13.3275C192.722 13.2742 193.048 13.1975 193.255 13.0975C193.468 12.9908 193.575 12.8108 193.575 12.5575C193.575 12.2642 193.475 12.0342 193.275 11.8675C193.075 11.7008 192.792 11.6175 192.425 11.6175C192.012 11.6175 191.695 11.7108 191.475 11.8975C191.262 12.0775 191.148 12.3308 191.135 12.6575H190.235C190.248 12.3442 190.338 12.0575 190.505 11.7975C190.672 11.5375 190.915 11.3308 191.235 11.1775C191.555 11.0175 191.948 10.9375 192.415 10.9375C192.955 10.9375 193.388 11.0342 193.715 11.2275C194.195 11.5142 194.435 12.0008 194.435 12.6875V15.1975C194.435 15.4042 194.465 15.5608 194.525 15.6675C194.585 15.7675 194.688 15.8175 194.835 15.8175C194.908 15.8175 194.968 15.8075 195.015 15.7875H195.045ZM192.015 15.8675C192.348 15.8675 192.635 15.7975 192.875 15.6575C193.115 15.5108 193.292 15.3308 193.405 15.1175C193.525 14.8975 193.585 14.6775 193.585 14.4575V13.5775C193.345 13.7308 192.952 13.8575 192.405 13.9575C192.065 14.0175 191.795 14.0808 191.595 14.1475C191.395 14.2142 191.235 14.3175 191.115 14.4575C191.002 14.5908 190.945 14.7742 190.945 15.0075C190.945 15.5808 191.302 15.8675 192.015 15.8675ZM196.72 11.0675V11.8275H196.75C197.177 11.2342 197.743 10.9375 198.45 10.9375C199.017 10.9375 199.46 11.0908 199.78 11.3975C200.1 11.7042 200.26 12.1342 200.26 12.6875V16.4375H199.34V12.7975C199.34 12.4575 199.233 12.1942 199.02 12.0075C198.813 11.8142 198.527 11.7175 198.16 11.7175C197.74 11.7175 197.397 11.8542 197.13 12.1275C196.863 12.3942 196.73 12.7408 196.73 13.1675V16.4375H195.8V11.0675H196.72ZM203.145 16.4775C202.765 16.4775 202.465 16.3908 202.245 16.2175C202.032 16.0442 201.925 15.7675 201.925 15.3875V11.7875H201.085V11.0675H201.925V9.3775H202.845V11.0675H203.955V11.7875H202.845V15.1775C202.845 15.3642 202.892 15.4942 202.985 15.5675C203.079 15.6408 203.215 15.6775 203.395 15.6775C203.555 15.6775 203.712 15.6542 203.865 15.6075H203.895V16.3875C203.649 16.4475 203.399 16.4775 203.145 16.4775ZM210.458 8.9975C211.538 8.9975 212.361 9.3375 212.928 10.0175C213.494 10.6908 213.778 11.6008 213.778 12.7475C213.778 13.4942 213.648 14.1442 213.388 14.6975C213.134 15.2508 212.751 15.6808 212.238 15.9875C211.731 16.2875 211.114 16.4375 210.388 16.4375H207.708V8.9975H210.458ZM210.348 15.5475C211.161 15.5475 211.758 15.3042 212.138 14.8175C212.524 14.3308 212.718 13.6408 212.718 12.7475C212.718 10.8408 211.948 9.8875 210.408 9.8875H208.738V15.5475H210.348ZM215.372 10.0975C215.205 10.0975 215.065 10.0442 214.952 9.9375C214.838 9.82417 214.782 9.6875 214.782 9.5275C214.782 9.3675 214.838 9.23417 214.952 9.1275C215.065 9.01417 215.205 8.9575 215.372 8.9575C215.532 8.9575 215.668 9.01417 215.782 9.1275C215.895 9.23417 215.952 9.3675 215.952 9.5275C215.952 9.6875 215.895 9.82417 215.782 9.9375C215.668 10.0442 215.532 10.0975 215.372 10.0975ZM214.902 11.0675H215.832V16.4375H214.902V11.0675ZM219.169 16.5775C218.442 16.5775 217.869 16.4175 217.449 16.0975C217.035 15.7775 216.809 15.3408 216.769 14.7875H217.709C217.809 15.4808 218.302 15.8275 219.189 15.8275C219.595 15.8275 219.899 15.7508 220.099 15.5975C220.299 15.4375 220.399 15.2308 220.399 14.9775C220.399 14.7908 220.349 14.6408 220.249 14.5275C220.155 14.4142 220.012 14.3242 219.819 14.2575C219.632 14.1908 219.362 14.1208 219.009 14.0475C218.555 13.9542 218.195 13.8608 217.929 13.7675C217.662 13.6675 217.439 13.5108 217.259 13.2975C217.085 13.0842 216.999 12.7942 216.999 12.4275C216.999 11.9608 217.172 11.5942 217.519 11.3275C217.865 11.0608 218.349 10.9275 218.969 10.9275C219.622 10.9275 220.125 11.0675 220.479 11.3475C220.839 11.6208 221.049 12.0008 221.109 12.4875H220.179C220.092 11.9142 219.682 11.6275 218.949 11.6275C218.602 11.6275 218.342 11.6975 218.169 11.8375C217.995 11.9775 217.909 12.1575 217.909 12.3775C217.909 12.5575 217.962 12.6975 218.069 12.7975C218.175 12.8975 218.319 12.9775 218.499 13.0375C218.685 13.0908 218.965 13.1542 219.339 13.2275C219.779 13.3142 220.132 13.4108 220.399 13.5175C220.672 13.6175 220.895 13.7808 221.069 14.0075C221.242 14.2275 221.329 14.5342 221.329 14.9275C221.329 15.4542 221.132 15.8608 220.739 16.1475C220.345 16.4342 219.822 16.5775 219.169 16.5775ZM224.761 16.5775C224.241 16.5775 223.781 16.4542 223.381 16.2075C222.981 15.9542 222.674 15.6142 222.461 15.1875C222.248 14.7542 222.141 14.2742 222.141 13.7475C222.141 13.2275 222.248 12.7542 222.461 12.3275C222.674 11.8942 222.981 11.5542 223.381 11.3075C223.781 11.0542 224.241 10.9275 224.761 10.9275C225.401 10.9275 225.924 11.0975 226.331 11.4375C226.738 11.7708 226.988 12.2275 227.081 12.8075H226.151C226.084 12.4542 225.931 12.1775 225.691 11.9775C225.458 11.7775 225.148 11.6775 224.761 11.6775C224.228 11.6775 223.814 11.8708 223.521 12.2575C223.234 12.6442 223.091 13.1408 223.091 13.7475C223.091 14.3542 223.234 14.8508 223.521 15.2375C223.814 15.6242 224.228 15.8175 224.761 15.8175C225.174 15.8175 225.504 15.7042 225.751 15.4775C225.998 15.2508 226.138 14.9342 226.171 14.5275H227.091C227.031 15.1675 226.798 15.6708 226.391 16.0375C225.984 16.3975 225.441 16.5775 224.761 16.5775ZM230.367 16.5875C229.84 16.5875 229.377 16.4642 228.977 16.2175C228.583 15.9642 228.277 15.6208 228.057 15.1875C227.843 14.7542 227.737 14.2742 227.737 13.7475C227.737 13.2275 227.843 12.7542 228.057 12.3275C228.277 11.9008 228.583 11.5642 228.977 11.3175C229.377 11.0642 229.84 10.9375 230.367 10.9375C230.893 10.9375 231.353 11.0642 231.747 11.3175C232.14 11.5642 232.443 11.9008 232.657 12.3275C232.87 12.7542 232.977 13.2275 232.977 13.7475C232.977 14.2742 232.87 14.7542 232.657 15.1875C232.443 15.6208 232.14 15.9642 231.747 16.2175C231.353 16.4642 230.893 16.5875 230.367 16.5875ZM230.357 15.8175C230.89 15.8175 231.3 15.6242 231.587 15.2375C231.88 14.8508 232.027 14.3542 232.027 13.7475C232.027 13.1475 231.88 12.6508 231.587 12.2575C231.293 11.8642 230.883 11.6675 230.357 11.6675C229.83 11.6675 229.42 11.8642 229.127 12.2575C228.833 12.6508 228.687 13.1475 228.687 13.7475C228.687 14.3542 228.83 14.8508 229.117 15.2375C229.41 15.6242 229.823 15.8175 230.357 15.8175ZM235.754 16.5575C235.194 16.5575 234.751 16.3975 234.424 16.0775C234.098 15.7575 233.934 15.3208 233.934 14.7675V11.0675H234.864V14.7175C234.864 15.0575 234.968 15.3242 235.174 15.5175C235.381 15.7042 235.668 15.7975 236.034 15.7975C236.441 15.7975 236.768 15.6608 237.014 15.3875C237.261 15.1075 237.384 14.7575 237.384 14.3375V11.0675H238.314V16.4375H237.394V15.6875H237.374C237.168 15.9742 236.938 16.1908 236.684 16.3375C236.431 16.4842 236.121 16.5575 235.754 16.5575ZM240.529 11.0675V11.8275H240.559C240.985 11.2342 241.552 10.9375 242.259 10.9375C242.825 10.9375 243.269 11.0908 243.589 11.3975C243.909 11.7042 244.069 12.1342 244.069 12.6875V16.4375H243.149V12.7975C243.149 12.4575 243.042 12.1942 242.829 12.0075C242.622 11.8142 242.335 11.7175 241.969 11.7175C241.549 11.7175 241.205 11.8542 240.939 12.1275C240.672 12.3942 240.539 12.7408 240.539 13.1675V16.4375H239.609V11.0675H240.529ZM246.954 16.4775C246.574 16.4775 246.274 16.3908 246.054 16.2175C245.841 16.0442 245.734 15.7675 245.734 15.3875V11.7875H244.894V11.0675H245.734V9.3775H246.654V11.0675H247.764V11.7875H246.654V15.1775C246.654 15.3642 246.701 15.4942 246.794 15.5675C246.887 15.6408 247.024 15.6775 247.204 15.6775C247.364 15.6775 247.521 15.6542 247.674 15.6075H247.704V16.3875C247.457 16.4475 247.207 16.4775 246.954 16.4775ZM253.726 16.5875C253.199 16.5875 252.736 16.4642 252.336 16.2175C251.943 15.9642 251.636 15.6208 251.416 15.1875C251.203 14.7542 251.096 14.2742 251.096 13.7475C251.096 13.2275 251.203 12.7542 251.416 12.3275C251.636 11.9008 251.943 11.5642 252.336 11.3175C252.736 11.0642 253.199 10.9375 253.726 10.9375C254.253 10.9375 254.713 11.0642 255.106 11.3175C255.499 11.5642 255.803 11.9008 256.016 12.3275C256.229 12.7542 256.336 13.2275 256.336 13.7475C256.336 14.2742 256.229 14.7542 256.016 15.1875C255.803 15.6208 255.499 15.9642 255.106 16.2175C254.713 16.4642 254.253 16.5875 253.726 16.5875ZM253.716 15.8175C254.249 15.8175 254.659 15.6242 254.946 15.2375C255.239 14.8508 255.386 14.3542 255.386 13.7475C255.386 13.1475 255.239 12.6508 254.946 12.2575C254.653 11.8642 254.243 11.6675 253.716 11.6675C253.189 11.6675 252.779 11.8642 252.486 12.2575C252.193 12.6508 252.046 13.1475 252.046 13.7475C252.046 14.3542 252.189 14.8508 252.476 15.2375C252.769 15.6242 253.183 15.8175 253.716 15.8175ZM258.244 11.0675V11.8275H258.274C258.7 11.2342 259.267 10.9375 259.974 10.9375C260.54 10.9375 260.984 11.0908 261.304 11.3975C261.624 11.7042 261.784 12.1342 261.784 12.6875V16.4375H260.864V12.7975C260.864 12.4575 260.757 12.1942 260.544 12.0075C260.337 11.8142 260.05 11.7175 259.684 11.7175C259.264 11.7175 258.92 11.8542 258.654 12.1275C258.387 12.3942 258.254 12.7408 258.254 13.1675V16.4375H257.324V11.0675H258.244ZM267.963 8.9975H269.103L271.843 16.4375H270.723L269.983 14.2675H267.053L266.293 16.4375H265.243L267.963 8.9975ZM269.003 11.3875C268.843 10.9342 268.693 10.4075 268.553 9.8075H268.523C268.369 10.4208 268.216 10.9475 268.063 11.3875L267.333 13.4675H269.713L269.003 11.3875ZM272.465 11.0675H273.545L274.345 12.2975C274.452 12.4708 274.595 12.7175 274.775 13.0375H274.795C274.982 12.7108 275.128 12.4642 275.235 12.2975L276.065 11.0675H277.075L275.325 13.5375L277.395 16.4375H276.315L275.285 14.9175C275.158 14.7308 274.995 14.4608 274.795 14.1075H274.775C274.575 14.4608 274.415 14.7308 274.295 14.9175L273.275 16.4375H272.235L274.255 13.6275L272.465 11.0675ZM278.702 10.0975C278.535 10.0975 278.395 10.0442 278.282 9.9375C278.168 9.82417 278.112 9.6875 278.112 9.5275C278.112 9.3675 278.168 9.23417 278.282 9.1275C278.395 9.01417 278.535 8.9575 278.702 8.9575C278.862 8.9575 278.998 9.01417 279.112 9.1275C279.225 9.23417 279.282 9.3675 279.282 9.5275C279.282 9.6875 279.225 9.82417 279.112 9.9375C278.998 10.0442 278.862 10.0975 278.702 10.0975ZM278.232 11.0675H279.162V16.4375H278.232V11.0675ZM282.499 16.5775C281.772 16.5775 281.199 16.4175 280.779 16.0975C280.365 15.7775 280.139 15.3408 280.099 14.7875H281.039C281.139 15.4808 281.632 15.8275 282.519 15.8275C282.925 15.8275 283.229 15.7508 283.429 15.5975C283.629 15.4375 283.729 15.2308 283.729 14.9775C283.729 14.7908 283.679 14.6408 283.579 14.5275C283.485 14.4142 283.342 14.3242 283.149 14.2575C282.962 14.1908 282.692 14.1208 282.339 14.0475C281.885 13.9542 281.525 13.8608 281.259 13.7675C280.992 13.6675 280.769 13.5108 280.589 13.2975C280.415 13.0842 280.329 12.7942 280.329 12.4275C280.329 11.9608 280.502 11.5942 280.849 11.3275C281.195 11.0608 281.679 10.9275 282.299 10.9275C282.952 10.9275 283.455 11.0675 283.809 11.3475C284.169 11.6208 284.379 12.0008 284.439 12.4875H283.509C283.422 11.9142 283.012 11.6275 282.279 11.6275C281.932 11.6275 281.672 11.6975 281.499 11.8375C281.325 11.9775 281.239 12.1575 281.239 12.3775C281.239 12.5575 281.292 12.6975 281.399 12.7975C281.505 12.8975 281.649 12.9775 281.829 13.0375C282.015 13.0908 282.295 13.1542 282.669 13.2275C283.109 13.3142 283.462 13.4108 283.729 13.5175C284.002 13.6175 284.225 13.7808 284.399 14.0075C284.572 14.2275 284.659 14.5342 284.659 14.9275C284.659 15.4542 284.462 15.8608 284.069 16.1475C283.675 16.4342 283.152 16.5775 282.499 16.5775ZM291.65 8.9975C292.416 8.9975 293.01 9.2075 293.43 9.6275C293.763 9.97417 293.93 10.4042 293.93 10.9175C293.93 11.3175 293.82 11.6475 293.6 11.9075C293.386 12.1675 293.076 12.3575 292.67 12.4775V12.5075C293.143 12.6142 293.52 12.8208 293.8 13.1275C294.086 13.4342 294.23 13.8242 294.23 14.2975C294.23 14.8708 294.04 15.3542 293.66 15.7475C293.213 16.2075 292.593 16.4375 291.8 16.4375H288.45V8.9975H291.65ZM291.51 12.1675C291.943 12.1675 292.283 12.0642 292.53 11.8575C292.776 11.6508 292.9 11.3608 292.9 10.9875C292.9 10.6408 292.786 10.3708 292.56 10.1775C292.34 9.9775 292.03 9.8775 291.63 9.8775H289.47V12.1675H291.51ZM291.74 15.5375C292.24 15.5375 292.613 15.4142 292.86 15.1675C293.08 14.9608 293.19 14.6808 293.19 14.3275C293.19 13.8942 293.05 13.5642 292.77 13.3375C292.496 13.1108 292.133 12.9975 291.68 12.9975H289.47V15.5375H291.74ZM300.094 15.7875V16.4375C299.92 16.4908 299.754 16.5175 299.594 16.5175C299.34 16.5175 299.13 16.4475 298.964 16.3075C298.797 16.1608 298.694 15.9408 298.654 15.6475H298.634C298.454 15.9142 298.214 16.1308 297.914 16.2975C297.614 16.4642 297.254 16.5475 296.834 16.5475C296.3 16.5475 295.864 16.4175 295.524 16.1575C295.184 15.8908 295.014 15.5108 295.014 15.0175C295.014 14.6175 295.104 14.3042 295.284 14.0775C295.47 13.8508 295.724 13.6875 296.044 13.5875C296.37 13.4808 296.797 13.3942 297.324 13.3275C297.77 13.2742 298.097 13.1975 298.304 13.0975C298.517 12.9908 298.624 12.8108 298.624 12.5575C298.624 12.2642 298.524 12.0342 298.324 11.8675C298.124 11.7008 297.84 11.6175 297.474 11.6175C297.06 11.6175 296.744 11.7108 296.524 11.8975C296.31 12.0775 296.197 12.3308 296.184 12.6575H295.284C295.297 12.3442 295.387 12.0575 295.554 11.7975C295.72 11.5375 295.964 11.3308 296.284 11.1775C296.604 11.0175 296.997 10.9375 297.464 10.9375C298.004 10.9375 298.437 11.0342 298.764 11.2275C299.244 11.5142 299.484 12.0008 299.484 12.6875V15.1975C299.484 15.4042 299.514 15.5608 299.574 15.6675C299.634 15.7675 299.737 15.8175 299.884 15.8175C299.957 15.8175 300.017 15.8075 300.064 15.7875H300.094ZM297.064 15.8675C297.397 15.8675 297.684 15.7975 297.924 15.6575C298.164 15.5108 298.34 15.3308 298.454 15.1175C298.574 14.8975 298.634 14.6775 298.634 14.4575V13.5775C298.394 13.7308 298 13.8575 297.454 13.9575C297.114 14.0175 296.844 14.0808 296.644 14.1475C296.444 14.2142 296.284 14.3175 296.164 14.4575C296.05 14.5908 295.994 14.7742 295.994 15.0075C295.994 15.5808 296.35 15.8675 297.064 15.8675ZM301.769 11.0675V11.8275H301.799C302.226 11.2342 302.792 10.9375 303.499 10.9375C304.066 10.9375 304.509 11.0908 304.829 11.3975C305.149 11.7042 305.309 12.1342 305.309 12.6875V16.4375H304.389V12.7975C304.389 12.4575 304.282 12.1942 304.069 12.0075C303.862 11.8142 303.576 11.7175 303.209 11.7175C302.789 11.7175 302.446 11.8542 302.179 12.1275C301.912 12.3942 301.779 12.7408 301.779 13.1675V16.4375H300.849V11.0675H301.769ZM307.492 8.9975V12.5275C307.492 12.7342 307.479 13.0108 307.452 13.3575L309.782 11.0675H310.942L308.892 12.9975L311.182 16.4375H310.092L308.252 13.6075L307.492 14.3275V16.4375H306.562V8.9975H307.492ZM317.988 16.5875C317.295 16.5875 316.681 16.4242 316.148 16.0975C315.621 15.7642 315.211 15.3042 314.918 14.7175C314.631 14.1308 314.488 13.4642 314.488 12.7175C314.488 11.9842 314.628 11.3242 314.908 10.7375C315.195 10.1508 315.605 9.69083 316.138 9.3575C316.671 9.02417 317.298 8.8575 318.018 8.8575C318.858 8.8575 319.548 9.07417 320.088 9.5075C320.348 9.7275 320.558 9.9875 320.718 10.2875C320.878 10.5808 320.985 10.9008 321.038 11.2475H320.018C319.931 10.7875 319.711 10.4242 319.358 10.1575C319.011 9.88417 318.558 9.7475 317.998 9.7475C317.485 9.7475 317.041 9.87417 316.668 10.1275C316.295 10.3808 316.011 10.7342 315.818 11.1875C315.625 11.6342 315.528 12.1442 315.528 12.7175C315.528 13.3042 315.628 13.8242 315.828 14.2775C316.035 14.7242 316.325 15.0708 316.698 15.3175C317.078 15.5642 317.515 15.6875 318.008 15.6875C318.648 15.6875 319.145 15.5042 319.498 15.1375C319.851 14.7642 320.051 14.2942 320.098 13.7275H321.118C321.111 14.1008 321.028 14.4708 320.868 14.8375C320.715 15.2042 320.501 15.5242 320.228 15.7975C319.695 16.3242 318.948 16.5875 317.988 16.5875ZM323.117 11.0675V12.0375H323.147C323.32 11.7175 323.54 11.4642 323.807 11.2775C324.08 11.0908 324.39 10.9975 324.737 10.9975C324.863 10.9975 324.977 11.0175 325.077 11.0575V11.9375H325.047C324.94 11.9042 324.813 11.8875 324.667 11.8875C324.387 11.8875 324.13 11.9542 323.897 12.0875C323.663 12.2208 323.477 12.4108 323.337 12.6575C323.197 12.9042 323.127 13.1908 323.127 13.5175V16.4375H322.197V11.0675H323.117ZM328.12 16.5775C327.587 16.5775 327.12 16.4542 326.72 16.2075C326.327 15.9542 326.024 15.6142 325.81 15.1875C325.604 14.7542 325.5 14.2742 325.5 13.7475C325.5 13.2275 325.607 12.7542 325.82 12.3275C326.04 11.8942 326.344 11.5542 326.73 11.3075C327.124 11.0542 327.57 10.9275 328.07 10.9275C328.83 10.9275 329.444 11.2042 329.91 11.7575C330.35 12.2842 330.57 13.0208 330.57 13.9675H326.45C326.484 14.5142 326.647 14.9608 326.94 15.3075C327.234 15.6475 327.63 15.8175 328.13 15.8175C328.497 15.8175 328.804 15.7375 329.05 15.5775C329.297 15.4108 329.464 15.1842 329.55 14.8975H330.46C330.34 15.4042 330.07 15.8108 329.65 16.1175C329.237 16.4242 328.727 16.5775 328.12 16.5775ZM329.58 13.2975C329.554 12.7775 329.41 12.3742 329.15 12.0875C328.89 11.7942 328.53 11.6475 328.07 11.6475C327.604 11.6475 327.234 11.7975 326.96 12.0975C326.694 12.3975 326.53 12.7975 326.47 13.2975H329.58ZM333.642 16.5775C333.162 16.5775 332.742 16.4642 332.382 16.2375C332.029 16.0042 331.755 15.6742 331.562 15.2475C331.369 14.8208 331.272 14.3208 331.272 13.7475C331.272 13.1742 331.372 12.6742 331.572 12.2475C331.779 11.8142 332.059 11.4842 332.412 11.2575C332.772 11.0308 333.175 10.9175 333.622 10.9175C333.995 10.9175 334.329 11.0042 334.622 11.1775C334.915 11.3442 335.149 11.5742 335.322 11.8675H335.342C335.322 11.6275 335.312 11.2975 335.312 10.8775V8.9975H336.242V16.4375H335.322V15.6475H335.302C335.129 15.9408 334.899 16.1708 334.612 16.3375C334.332 16.4975 334.009 16.5775 333.642 16.5775ZM333.712 15.8075C334.265 15.8075 334.679 15.6208 334.952 15.2475C335.225 14.8742 335.362 14.3775 335.362 13.7575C335.362 13.1375 335.219 12.6408 334.932 12.2675C334.645 11.8875 334.239 11.6975 333.712 11.6975C333.232 11.6975 332.862 11.8875 332.602 12.2675C332.349 12.6475 332.222 13.1442 332.222 13.7575C332.222 14.3708 332.349 14.8675 332.602 15.2475C332.862 15.6208 333.232 15.8075 333.712 15.8075ZM337.989 10.0975C337.822 10.0975 337.682 10.0442 337.569 9.9375C337.456 9.82417 337.399 9.6875 337.399 9.5275C337.399 9.3675 337.456 9.23417 337.569 9.1275C337.682 9.01417 337.822 8.9575 337.989 8.9575C338.149 8.9575 338.286 9.01417 338.399 9.1275C338.512 9.23417 338.569 9.3675 338.569 9.5275C338.569 9.6875 338.512 9.82417 338.399 9.9375C338.286 10.0442 338.149 10.0975 337.989 10.0975ZM337.519 11.0675H338.449V16.4375H337.519V11.0675ZM341.456 16.4775C341.076 16.4775 340.776 16.3908 340.556 16.2175C340.343 16.0442 340.236 15.7675 340.236 15.3875V11.7875H339.396V11.0675H340.236V9.3775H341.156V11.0675H342.266V11.7875H341.156V15.1775C341.156 15.3642 341.203 15.4942 341.296 15.5675C341.389 15.6408 341.526 15.6775 341.706 15.6775C341.866 15.6775 342.023 15.6542 342.176 15.6075H342.206V16.3875C341.959 16.4475 341.709 16.4775 341.456 16.4775ZM348.628 8.6075H349.568L345.948 17.6875H345.018L348.628 8.6075ZM355.809 8.9975C356.889 8.9975 357.712 9.3375 358.279 10.0175C358.846 10.6908 359.129 11.6008 359.129 12.7475C359.129 13.4942 358.999 14.1442 358.739 14.6975C358.486 15.2508 358.102 15.6808 357.589 15.9875C357.082 16.2875 356.466 16.4375 355.739 16.4375H353.059V8.9975H355.809ZM355.699 15.5475C356.512 15.5475 357.109 15.3042 357.489 14.8175C357.876 14.3308 358.069 13.6408 358.069 12.7475C358.069 10.8408 357.299 9.8875 355.759 9.8875H354.089V15.5475H355.699ZM362.583 16.5775C362.05 16.5775 361.583 16.4542 361.183 16.2075C360.79 15.9542 360.487 15.6142 360.273 15.1875C360.067 14.7542 359.963 14.2742 359.963 13.7475C359.963 13.2275 360.07 12.7542 360.283 12.3275C360.503 11.8942 360.807 11.5542 361.193 11.3075C361.587 11.0542 362.033 10.9275 362.533 10.9275C363.293 10.9275 363.907 11.2042 364.373 11.7575C364.813 12.2842 365.033 13.0208 365.033 13.9675H360.913C360.947 14.5142 361.11 14.9608 361.403 15.3075C361.697 15.6475 362.093 15.8175 362.593 15.8175C362.96 15.8175 363.267 15.7375 363.513 15.5775C363.76 15.4108 363.927 15.1842 364.013 14.8975H364.923C364.803 15.4042 364.533 15.8108 364.113 16.1175C363.7 16.4242 363.19 16.5775 362.583 16.5775ZM364.043 13.2975C364.017 12.7775 363.873 12.3742 363.613 12.0875C363.353 11.7942 362.993 11.6475 362.533 11.6475C362.067 11.6475 361.697 11.7975 361.423 12.0975C361.157 12.3975 360.993 12.7975 360.933 13.2975H364.043ZM368.655 16.5775C368.295 16.5775 367.968 16.5008 367.675 16.3475C367.381 16.1875 367.148 15.9575 366.975 15.6575H366.945V16.4375H366.025V8.9975H366.955V10.8875C366.955 11.1075 366.945 11.4475 366.925 11.9075H366.955C367.141 11.6075 367.381 11.3708 367.675 11.1975C367.975 11.0175 368.311 10.9275 368.685 10.9275C369.138 10.9275 369.538 11.0408 369.885 11.2675C370.231 11.4942 370.498 11.8208 370.685 12.2475C370.878 12.6675 370.975 13.1675 370.975 13.7475C370.975 14.6142 370.768 15.3042 370.355 15.8175C369.941 16.3242 369.375 16.5775 368.655 16.5775ZM368.555 15.8075C369.035 15.8075 369.398 15.6208 369.645 15.2475C369.898 14.8675 370.025 14.3708 370.025 13.7575C370.025 13.1442 369.898 12.6508 369.645 12.2775C369.398 11.8975 369.038 11.7075 368.565 11.7075C368.018 11.7075 367.605 11.9008 367.325 12.2875C367.045 12.6675 366.905 13.1575 366.905 13.7575C366.905 14.3642 367.045 14.8575 367.325 15.2375C367.611 15.6175 368.021 15.8075 368.555 15.8075ZM372.432 10.0975C372.266 10.0975 372.126 10.0442 372.012 9.9375C371.899 9.82417 371.842 9.6875 371.842 9.5275C371.842 9.3675 371.899 9.23417 372.012 9.1275C372.126 9.01417 372.266 8.9575 372.432 8.9575C372.592 8.9575 372.729 9.01417 372.842 9.1275C372.956 9.23417 373.012 9.3675 373.012 9.5275C373.012 9.6875 372.956 9.82417 372.842 9.9375C372.729 10.0442 372.592 10.0975 372.432 10.0975ZM371.962 11.0675H372.892V16.4375H371.962V11.0675ZM375.899 16.4775C375.519 16.4775 375.219 16.3908 374.999 16.2175C374.786 16.0442 374.679 15.7675 374.679 15.3875V11.7875H373.839V11.0675H374.679V9.3775H375.599V11.0675H376.709V11.7875H375.599V15.1775C375.599 15.3642 375.646 15.4942 375.739 15.5675C375.833 15.6408 375.969 15.6775 376.149 15.6775C376.309 15.6775 376.466 15.6542 376.619 15.6075H376.649V16.3875C376.403 16.4475 376.153 16.4775 375.899 16.4775ZM383.681 16.5875C382.988 16.5875 382.375 16.4242 381.841 16.0975C381.315 15.7642 380.905 15.3042 380.611 14.7175C380.325 14.1308 380.181 13.4642 380.181 12.7175C380.181 11.9842 380.321 11.3242 380.601 10.7375C380.888 10.1508 381.298 9.69083 381.831 9.3575C382.365 9.02417 382.991 8.8575 383.711 8.8575C384.551 8.8575 385.241 9.07417 385.781 9.5075C386.041 9.7275 386.251 9.9875 386.411 10.2875C386.571 10.5808 386.678 10.9008 386.731 11.2475H385.711C385.625 10.7875 385.405 10.4242 385.051 10.1575C384.705 9.88417 384.251 9.7475 383.691 9.7475C383.178 9.7475 382.735 9.87417 382.361 10.1275C381.988 10.3808 381.705 10.7342 381.511 11.1875C381.318 11.6342 381.221 12.1442 381.221 12.7175C381.221 13.3042 381.321 13.8242 381.521 14.2775C381.728 14.7242 382.018 15.0708 382.391 15.3175C382.771 15.5642 383.208 15.6875 383.701 15.6875C384.341 15.6875 384.838 15.5042 385.191 15.1375C385.545 14.7642 385.745 14.2942 385.791 13.7275H386.811C386.805 14.1008 386.721 14.4708 386.561 14.8375C386.408 15.2042 386.195 15.5242 385.921 15.7975C385.388 16.3242 384.641 16.5875 383.681 16.5875ZM392.75 15.7875V16.4375C392.577 16.4908 392.41 16.5175 392.25 16.5175C391.997 16.5175 391.787 16.4475 391.62 16.3075C391.453 16.1608 391.35 15.9408 391.31 15.6475H391.29C391.11 15.9142 390.87 16.1308 390.57 16.2975C390.27 16.4642 389.91 16.5475 389.49 16.5475C388.957 16.5475 388.52 16.4175 388.18 16.1575C387.84 15.8908 387.67 15.5108 387.67 15.0175C387.67 14.6175 387.76 14.3042 387.94 14.0775C388.127 13.8508 388.38 13.6875 388.7 13.5875C389.027 13.4808 389.453 13.3942 389.98 13.3275C390.427 13.2742 390.753 13.1975 390.96 13.0975C391.173 12.9908 391.28 12.8108 391.28 12.5575C391.28 12.2642 391.18 12.0342 390.98 11.8675C390.78 11.7008 390.497 11.6175 390.13 11.6175C389.717 11.6175 389.4 11.7108 389.18 11.8975C388.967 12.0775 388.853 12.3308 388.84 12.6575H387.94C387.953 12.3442 388.043 12.0575 388.21 11.7975C388.377 11.5375 388.62 11.3308 388.94 11.1775C389.26 11.0175 389.653 10.9375 390.12 10.9375C390.66 10.9375 391.093 11.0342 391.42 11.2275C391.9 11.5142 392.14 12.0008 392.14 12.6875V15.1975C392.14 15.4042 392.17 15.5608 392.23 15.6675C392.29 15.7675 392.393 15.8175 392.54 15.8175C392.613 15.8175 392.673 15.8075 392.72 15.7875H392.75ZM389.72 15.8675C390.053 15.8675 390.34 15.7975 390.58 15.6575C390.82 15.5108 390.997 15.3308 391.11 15.1175C391.23 14.8975 391.29 14.6775 391.29 14.4575V13.5775C391.05 13.7308 390.657 13.8575 390.11 13.9575C389.77 14.0175 389.5 14.0808 389.3 14.1475C389.1 14.2142 388.94 14.3175 388.82 14.4575C388.707 14.5908 388.65 14.7742 388.65 15.0075C388.65 15.5808 389.007 15.8675 389.72 15.8675ZM394.425 11.0675V12.0375H394.455C394.629 11.7175 394.849 11.4642 395.115 11.2775C395.389 11.0908 395.699 10.9975 396.045 10.9975C396.172 10.9975 396.285 11.0175 396.385 11.0575V11.9375H396.355C396.249 11.9042 396.122 11.8875 395.975 11.8875C395.695 11.8875 395.439 11.9542 395.205 12.0875C394.972 12.2208 394.785 12.4108 394.645 12.6575C394.505 12.9042 394.435 13.1908 394.435 13.5175V16.4375H393.505V11.0675H394.425ZM399.179 16.5775C398.699 16.5775 398.279 16.4642 397.919 16.2375C397.566 16.0042 397.292 15.6742 397.099 15.2475C396.906 14.8208 396.809 14.3208 396.809 13.7475C396.809 13.1742 396.909 12.6742 397.109 12.2475C397.316 11.8142 397.596 11.4842 397.949 11.2575C398.309 11.0308 398.712 10.9175 399.159 10.9175C399.532 10.9175 399.866 11.0042 400.159 11.1775C400.452 11.3442 400.686 11.5742 400.859 11.8675H400.879C400.859 11.6275 400.849 11.2975 400.849 10.8775V8.9975H401.779V16.4375H400.859V15.6475H400.839C400.666 15.9408 400.436 16.1708 400.149 16.3375C399.869 16.4975 399.546 16.5775 399.179 16.5775ZM399.249 15.8075C399.802 15.8075 400.216 15.6208 400.489 15.2475C400.762 14.8742 400.899 14.3775 400.899 13.7575C400.899 13.1375 400.756 12.6408 400.469 12.2675C400.182 11.8875 399.776 11.6975 399.249 11.6975C398.769 11.6975 398.399 11.8875 398.139 12.2675C397.886 12.6475 397.759 13.1442 397.759 13.7575C397.759 14.3708 397.886 14.8675 398.139 15.2475C398.399 15.6208 398.769 15.8075 399.249 15.8075ZM405.116 16.5775C404.389 16.5775 403.816 16.4175 403.396 16.0975C402.983 15.7775 402.756 15.3408 402.716 14.7875H403.656C403.756 15.4808 404.249 15.8275 405.136 15.8275C405.543 15.8275 405.846 15.7508 406.046 15.5975C406.246 15.4375 406.346 15.2308 406.346 14.9775C406.346 14.7908 406.296 14.6408 406.196 14.5275C406.103 14.4142 405.959 14.3242 405.766 14.2575C405.579 14.1908 405.309 14.1208 404.956 14.0475C404.503 13.9542 404.143 13.8608 403.876 13.7675C403.609 13.6675 403.386 13.5108 403.206 13.2975C403.033 13.0842 402.946 12.7942 402.946 12.4275C402.946 11.9608 403.119 11.5942 403.466 11.3275C403.813 11.0608 404.296 10.9275 404.916 10.9275C405.569 10.9275 406.073 11.0675 406.426 11.3475C406.786 11.6208 406.996 12.0008 407.056 12.4875H406.126C406.039 11.9142 405.629 11.6275 404.896 11.6275C404.549 11.6275 404.289 11.6975 404.116 11.8375C403.943 11.9775 403.856 12.1575 403.856 12.3775C403.856 12.5575 403.909 12.6975 404.016 12.7975C404.123 12.8975 404.266 12.9775 404.446 13.0375C404.633 13.0908 404.913 13.1542 405.286 13.2275C405.726 13.3142 406.079 13.4108 406.346 13.5175C406.619 13.6175 406.843 13.7808 407.016 14.0075C407.189 14.2275 407.276 14.5342 407.276 14.9275C407.276 15.4542 407.079 15.8608 406.686 16.1475C406.293 16.4342 405.769 16.5775 405.116 16.5775ZM106.5 27.7875V28.4375C106.327 28.4908 106.16 28.5175 106 28.5175C105.747 28.5175 105.537 28.4475 105.37 28.3075C105.203 28.1608 105.1 27.9408 105.06 27.6475H105.04C104.86 27.9142 104.62 28.1308 104.32 28.2975C104.02 28.4642 103.66 28.5475 103.24 28.5475C102.707 28.5475 102.27 28.4175 101.93 28.1575C101.59 27.8908 101.42 27.5108 101.42 27.0175C101.42 26.6175 101.51 26.3042 101.69 26.0775C101.877 25.8508 102.13 25.6875 102.45 25.5875C102.777 25.4808 103.203 25.3942 103.73 25.3275C104.177 25.2742 104.503 25.1975 104.71 25.0975C104.923 24.9908 105.03 24.8108 105.03 24.5575C105.03 24.2642 104.93 24.0342 104.73 23.8675C104.53 23.7008 104.247 23.6175 103.88 23.6175C103.467 23.6175 103.15 23.7108 102.93 23.8975C102.717 24.0775 102.603 24.3308 102.59 24.6575H101.69C101.703 24.3442 101.793 24.0575 101.96 23.7975C102.127 23.5375 102.37 23.3308 102.69 23.1775C103.01 23.0175 103.403 22.9375 103.87 22.9375C104.41 22.9375 104.843 23.0342 105.17 23.2275C105.65 23.5142 105.89 24.0008 105.89 24.6875V27.1975C105.89 27.4042 105.92 27.5608 105.98 27.6675C106.04 27.7675 106.143 27.8175 106.29 27.8175C106.363 27.8175 106.423 27.8075 106.47 27.7875H106.5ZM103.47 27.8675C103.803 27.8675 104.09 27.7975 104.33 27.6575C104.57 27.5108 104.747 27.3308 104.86 27.1175C104.98 26.8975 105.04 26.6775 105.04 26.4575V25.5775C104.8 25.7308 104.407 25.8575 103.86 25.9575C103.52 26.0175 103.25 26.0808 103.05 26.1475C102.85 26.2142 102.69 26.3175 102.57 26.4575C102.457 26.5908 102.4 26.7742 102.4 27.0075C102.4 27.5808 102.757 27.8675 103.47 27.8675ZM108.175 23.0675V23.8275H108.205C108.632 23.2342 109.199 22.9375 109.905 22.9375C110.472 22.9375 110.915 23.0908 111.235 23.3975C111.555 23.7042 111.715 24.1342 111.715 24.6875V28.4375H110.795V24.7975C110.795 24.4575 110.689 24.1942 110.475 24.0075C110.269 23.8142 109.982 23.7175 109.615 23.7175C109.195 23.7175 108.852 23.8542 108.585 24.1275C108.319 24.3942 108.185 24.7408 108.185 25.1675V28.4375H107.255V23.0675H108.175ZM115.048 28.5775C114.568 28.5775 114.148 28.4642 113.788 28.2375C113.435 28.0042 113.161 27.6742 112.968 27.2475C112.775 26.8208 112.678 26.3208 112.678 25.7475C112.678 25.1742 112.778 24.6742 112.978 24.2475C113.185 23.8142 113.465 23.4842 113.818 23.2575C114.178 23.0308 114.581 22.9175 115.028 22.9175C115.401 22.9175 115.735 23.0042 116.028 23.1775C116.321 23.3442 116.555 23.5742 116.728 23.8675H116.748C116.728 23.6275 116.718 23.2975 116.718 22.8775V20.9975H117.648V28.4375H116.728V27.6475H116.708C116.535 27.9408 116.305 28.1708 116.018 28.3375C115.738 28.4975 115.415 28.5775 115.048 28.5775ZM115.118 27.8075C115.671 27.8075 116.085 27.6208 116.358 27.2475C116.631 26.8742 116.768 26.3775 116.768 25.7575C116.768 25.1375 116.625 24.6408 116.338 24.2675C116.051 23.8875 115.645 23.6975 115.118 23.6975C114.638 23.6975 114.268 23.8875 114.008 24.2675C113.755 24.6475 113.628 25.1442 113.628 25.7575C113.628 26.3708 113.755 26.8675 114.008 27.2475C114.268 27.6208 114.638 27.8075 115.118 27.8075ZM121.711 20.9975H127.001V21.8975H122.731V24.1475H126.591V24.9975H122.731V27.5075H127.111V28.4375H121.711V20.9975ZM129.692 20.9975L131.242 25.0375C131.435 25.5508 131.685 26.3275 131.992 27.3675H132.012C132.325 26.3342 132.578 25.5575 132.772 25.0375L134.292 20.9975H135.652V28.4375H134.672V23.9375C134.672 23.5175 134.692 22.8808 134.732 22.0275H134.712C134.505 22.7942 134.332 23.3608 134.192 23.7275L132.382 28.4375H131.582L129.782 23.7275C129.642 23.3608 129.465 22.7942 129.252 22.0275H129.232C129.272 22.8808 129.292 23.5175 129.292 23.9375V28.4375H128.372V20.9975H129.692ZM137.2 20.9975H138.22V28.4375H137.2V20.9975ZM140.088 28.5075C139.914 28.5075 139.768 28.4508 139.648 28.3375C139.528 28.2175 139.468 28.0742 139.468 27.9075C139.468 27.7408 139.528 27.6008 139.648 27.4875C139.768 27.3675 139.914 27.3075 140.088 27.3075C140.261 27.3075 140.404 27.3675 140.518 27.4875C140.638 27.6008 140.698 27.7408 140.698 27.9075C140.698 28.0742 140.638 28.2175 140.518 28.3375C140.404 28.4508 140.261 28.5075 140.088 28.5075Z" fill="white"/>
</svg>
