<svg width="162" height="20" viewBox="0 0 162 20" fill="none" xmlns="http://www.w3.org/2000/svg">
<path d="M28.7694 3.91336L24.7563 10.8712H24.7749H21.6133L21.2603 11.8869H24.1679L21.765 16.0517H23.3164L25.7224 11.89L25.7162 11.8869H29.2772L30.0358 16.0517H32.9156L30.6861 3.91026H28.7694V3.91336ZM26.3107 10.8743L26.3169 10.8712L28.4287 7.22044L29.0945 10.8774H26.3107V10.8743ZM69.7641 9.5583L69.7703 9.5614H67.9929L67.6523 10.5771H69.4297H69.439L67.7049 16.0548H75.666L76.0036 14.9277H71.0925L72.4735 10.5802H75.6629L76.0005 9.5645H72.7987L74.254 4.99095H79.193L79.5026 3.91646H71.5415L69.7641 9.5583ZM90.3342 3.91336H87.3987L83.5621 16.0548H90.5912L90.9442 14.9679H86.8414L90.3342 3.91336ZM122.544 3.91336H119.609L115.769 16.0548H122.798L123.148 14.9679H119.045L122.544 3.91336ZM136.531 3.91336L132.518 10.8712H132.537H129.378L129.025 11.8869H131.933L129.533 16.0517H131.084L133.49 11.89L133.481 11.8869H137.042L137.801 16.0517H140.68L138.451 3.91026H136.531V3.91336ZM134.076 10.8743L134.082 10.8712L136.194 7.22044L136.859 10.8774H134.076V10.8743ZM12.6056 9.67597H8.14348L9.96423 3.91646H7.08447L5.26063 9.67597H2.32513L2 10.7474H4.92001L3.23861 16.0548H6.11836L7.79667 10.7474H12.2556L10.5773 16.0548H13.4571L17.2968 3.91336H14.417L12.6056 9.67597ZM47.206 5.71553L47.816 4.69678C42.1215 1.53834 38.0155 7.62608 42.0472 10.2953C42.7253 10.7721 43.6729 11.1344 44.6607 11.7878C47.0697 13.3825 43.4716 16.9466 39.6722 13.7572L38.8919 14.7759C41.7778 17.2872 46.5619 16.3954 47.4444 12.5681C47.751 11.2459 47.3856 10.1652 46.2894 9.37871C45.2025 8.59839 44.5585 8.39711 43.71 7.95431C40.79 6.66616 43.676 3.37457 47.206 5.71553ZM61.0691 5.71553L61.6791 4.69678C55.9846 1.53834 51.8817 7.62608 55.9103 10.2953C56.5884 10.7721 57.536 11.1344 58.5237 11.7878C60.9328 13.3825 57.3347 16.9466 53.5353 13.7572L52.7549 14.7759C55.6409 17.2872 60.425 16.3954 61.3075 12.5681C61.611 11.2459 61.2487 10.1652 60.1525 9.37871C59.0656 8.59839 58.4216 8.39711 57.5731 7.95431C54.6531 6.66616 57.536 3.37457 61.0691 5.71553ZM105.51 3.91336C101.952 3.91646 101.556 3.91336 101.556 3.91336L99.6857 9.50567H98.5214H97.803L97.4345 10.6049H99.2615L99.3172 10.608L97.8649 14.94L97.4903 16.0548H102.912C108.471 15.9526 110.39 10.9053 106.182 9.93299C111.028 8.45285 110.39 3.91027 105.51 3.91336ZM102.94 14.9834H101.918L100.881 14.971L102.308 10.6049H104.027C107.427 10.639 105.139 14.9462 102.94 14.9834ZM104.197 9.49328H102.717L104.154 4.98785H104.832C107.932 4.91973 107.257 9.42825 104.197 9.49328ZM154.643 3.91336H151.029L147.075 16.0548H151.76C161.223 15.7173 163.006 3.81118 154.643 3.91336ZM151.648 14.9277H150.295L153.68 5.04668H154.643C159.157 5.04668 157.011 14.9277 151.648 14.9277Z" fill="black"/>
</svg>
